HIERARCHY
ROOT Bip001_Pelvis
{
  OFFSET 34.4345 95.6767 -26.8758
  CHANNELS 6 Xposition Yposition Zposition Zrotation Xrotation Yrotation
  JOINT Bip001_Spine
  {
    OFFSET 1.4188e-005 10.2191 -0.0116013
    CHANNELS 3 Zrotation Xrotation Yrotation
    JOINT Bip001_L_Thigh
    {
      OFFSET 11.0458 -10.2192 0.0116197
      CHANNELS 3 Zrotation Xrotation Yrotation
      JOINT Bip001_L_Calf
      {
        OFFSET -0.707118 -44.0221 0.360014
        CHANNELS 3 Zrotation Xrotation Yrotation
        JOINT Bip001_L_Foot
        {
          OFFSET -0.651902 -40.5938 -3.56146
          CHANNELS 3 Zrotation Xrotation Yrotation
          JOINT Bip001_L_Toe0
          {
            OFFSET 0.0530839 -10.2181 13.1504
            CHANNELS 3 Zrotation Xrotation Yrotation
            End Site
            {
              OFFSET -1.02532e-005 0 7.55606
            }
          }
        }
      }
    }
    JOINT Bip001_R_Thigh
    {
      OFFSET -11.0458 -10.2191 0.0115893
      CHANNELS 3 Zrotation Xrotation Yrotation
      JOINT Bip001_R_Calf
      {
        OFFSET 0.706994 -44.0221 0.35984
        CHANNELS 3 Zrotation Xrotation Yrotation
        JOINT Bip001_R_Foot
        {
          OFFSET 0.651786 -40.5938 -3.5613
          CHANNELS 3 Zrotation Xrotation Yrotation
          JOINT Bip001_R_Toe0
          {
            OFFSET -0.0531479 -10.2181 13.1504
            CHANNELS 3 Zrotation Xrotation Yrotation
            End Site
            {
              OFFSET -1.02894e-005 0 7.55606
            }
          }
        }
      }
    }
    JOINT Bip001_Spine1
    {
      OFFSET 1.87041e-005 14.5736 1.08638
      CHANNELS 3 Zrotation Xrotation Yrotation
      JOINT Bip001_Spine2
      {
        OFFSET 2.24614e-005 14.5058 -1.69078
        CHANNELS 3 Zrotation Xrotation Yrotation
        JOINT Bip001_Neck
        {
          OFFSET 2.20278e-005 15.3945 -0.489414
          CHANNELS 3 Zrotation Xrotation Yrotation
          JOINT Bip001_L_Clavicle
          {
            OFFSET 6.06036 -0.000579998 0.00836775
            CHANNELS 3 Zrotation Xrotation Yrotation
            JOINT Bip001_L_UpperArm
            {
              OFFSET 11.5509 -0.0600302 0.00193952
              CHANNELS 3 Zrotation Xrotation Yrotation
              JOINT Bip001_L_Forearm
              {
                OFFSET 25.9523 0.0806089 -2.15551
                CHANNELS 3 Zrotation Xrotation Yrotation
                JOINT Bip001_L_Hand
                {
                  OFFSET 32.2475 0.153767 1.63968
                  CHANNELS 3 Zrotation Xrotation Yrotation
                  JOINT Bip001_L_Finger0
                  {
                    OFFSET 6.04639 -2.20976 5.90322
                    CHANNELS 3 Zrotation Xrotation Yrotation
                    End Site
                    {
                      OFFSET 4.22375 -1.43895 0.606485
                    }
                  }
                  JOINT Bip001_L_Finger1
                  {
                    OFFSET 11.0826 -0.704819 -0.198153
                    CHANNELS 3 Zrotation Xrotation Yrotation
                    End Site
                    {
                      OFFSET 6.20027 -0.397518 -0.0787166
                    }
                  }
                }
              }
            }
          }
          JOINT Bip001_R_Clavicle
          {
            OFFSET -6.06037 -0.000563197 0.00835105
            CHANNELS 3 Zrotation Xrotation Yrotation
            JOINT Bip001_R_UpperArm
            {
              OFFSET -11.5509 -0.0599978 0.00190698
              CHANNELS 3 Zrotation Xrotation Yrotation
              JOINT Bip001_R_Forearm
              {
                OFFSET -25.9523 0.0806822 -2.15589
                CHANNELS 3 Zrotation Xrotation Yrotation
                JOINT Bip001_R_Hand
                {
                  OFFSET -32.2475 0.153859 1.63989
                  CHANNELS 3 Zrotation Xrotation Yrotation
                  JOINT Bip001_R_Finger0
                  {
                    OFFSET -6.04641 -2.20976 5.90317
                    CHANNELS 3 Zrotation Xrotation Yrotation
                    End Site
                    {
                      OFFSET -4.22376 -1.43895 0.60647
                    }
                  }
                  JOINT Bip001_R_Finger1
                  {
                    OFFSET -11.0826 -0.704794 -0.198182
                    CHANNELS 3 Zrotation Xrotation Yrotation
                    End Site
                    {
                      OFFSET -6.20028 -0.397504 -0.0787333
                    }
                  }
                }
              }
            }
          }
          JOINT Bip001_Head
          {
            OFFSET 1.09673e-005 11.2744 2.05948
            CHANNELS 3 Zrotation Xrotation Yrotation
            End Site
            {
              OFFSET 2.89576e-005 20.8808 -2.77728e-005
            }
          }
        }
      }
    }
  }
}
MOTION
Frames:	12
Frame Time:	0.04
32.5266 95.6431 -31.5483 -2.4057 4.73266 10.3752 -0.509771 2.21451 -0.790256 9.11126 -13.9333 8.52551 -0.187148 14.2457 -8.00545 0.590798 -6.24707 0.028962 1.10819 -3.55934 -0.857331 -0.974543 -8.23268 -2.46969 1.14476 10.2886 -0.56174 -8.80852 -5.91875 -10.1145 2.4798 -8.60813 2.96744 -0.990268 4.43563 -1.57346 -0.990573 4.43561 -1.56873 -3.17545 -7.37198 1.40379 -18.9042 9.85308 -4.0643 -47.7155 41.6405 8.24154 13.7722 -10.1445 -34.8771 8.33925 0.258109 -0.353059 -3.53112e-031 6.36111e-015 3.18055e-015 1.59028e-015 6.36111e-015 -0 14.0457 11.7233 20.6144 51.9254 -51.879 47.8147 -51.6971 -6.25915 60.744 -14.4828 -13.7303 4.64572 -4.41391e-031 3.18055e-015 7.95139e-015 -3.18055e-015 3.18056e-015 7.95139e-015 -0.650783 7.70719 0.839408 
33.0128 95.6864 -31.3059 -0.789961 3.27724 8.9003 -0.594745 2.2519 -0.758995 7.12006 -10.9707 9.64654 0.70559 12.4798 -7.54741 0.0934473 -5.882 0.02784 1.47713 -3.23118 -1.37732 -2.7008 -7.2522 -4.26886 0.960049 11.7515 0.0106666 -8.50711 -7.04299 -7.97684 2.47293 -8.58377 2.96555 -1.16306 4.51136 -1.4974 -1.16214 4.51137 -1.49637 -2.46111 -4.35955 1.64769 -18.6986 7.48908 -6.80674 -52.7946 39.6807 13.1181 12.5613 -9.56895 -34.993 8.88978 0.748089 0.361579 6.36111e-015 3.18055e-015 -3.18055e-015 1.59028e-015 3.18056e-015 -0 13.93 7.88888 15.5054 37.0798 -46.9417 38.8894 -44.8598 -7.85991 57.8742 -16.9286 -7.93152 2.11482 -6.36111e-015 2.18663e-015 3.47873e-015 -3.18055e-015 2.38542e-015 -1.59028e-015 -3.23172 7.40367 1.86358 
33.2498 95.772 -31.2961 -0.43251 2.60447 4.03801 -0.216022 2.08826 -0.981646 6.74429 -8.52778 10.9168 0.327095 11.6639 -4.07927 -0.94516 -6.46975 0.0273169 0.849575 -2.63159 -0.707013 -3.21054 -7.3152 -1.99172 0.617466 11.855 0.503394 -7.81971 -7.00306 -5.95668 2.38943 -8.38642 2.96126 -0.398139 4.17979 -1.96734 -0.397851 4.1798 -1.96236 -5.84112 -4.64118 4.58209 -16.6444 7.56983 -5.704 -57.1989 42.1196 14.9323 15.1642 -6.56056 -31.4346 4.54621 0.589985 -0.294854 4.77083e-015 3.18055e-015 -1.59028e-015 3.18055e-015 0 -1.59028e-015 13.3972 6.91295 14.3432 24.7438 -38.8928 29.2186 -40.8244 -12.8704 53.621 -13.114 -2.81949 4.03772 3.18055e-015 -2.38542e-015 -1.59028e-015 3.18055e-015 -1.59028e-015 -3.18055e-015 -2.06911 7.56571 3.50795 
33.1513 95.7594 -31.3863 -0.942241 3.35635 -1.93675 0.155634 1.93081 -0.597301 7.68182 -7.88722 12.0768 -0.820417 12.0137 0.222176 -0.745109 -7.21517 0.0391156 0.769085 -2.79534 -0.460993 -2.48989 -8.94893 1.32543 0.23037 11.6922 0.914826 -7.32213 -6.57692 -4.30775 2.32963 -8.24097 2.95438 0.330453 3.86007 -1.20425 0.325424 3.85992 -1.20235 -4.46536 -5.73488 5.03775 -19.7206 8.97724 -5.29359 -57.1232 42.5596 13.9036 16.2832 -0.802814 -27.7866 0.271797 0.445653 -1.62176 1.59028e-015 6.36111e-015 -0 -8.82782e-032 6.36111e-015 7.95139e-016 11.2355 7.88402 13.3878 21.8092 -34.7438 26.3347 -36.9609 -16.3173 54.5783 -9.34741 -4.75762 6.01966 -8.27607e-032 1.98785e-015 2.38542e-015 -9.54166e-015 1.19271e-015 2.5842e-015 -4.13534 6.60372 4.85675 
33.4424 95.7046 -31.0898 -0.532304 1.93203 -6.51147 0.118249 1.97163 -0.0723172 6.42691 -5.06686 11.3103 -0.306113 11.0554 4.10453 -0.141258 -6.82607 0.0431518 0.810167 -3.47513 -0.31164 -3.11514 -8.56355 0.780124 -0.105113 12.5485 1.20428 -6.28777 -7.55529 -0.613831 2.26158 -8.11173 3.00203 0.238864 3.94298 -0.14917 0.240539 3.94305 -0.149052 -0.128623 -2.93505 3.51471 -25.1027 7.10698 -7.74041 -56.6524 42.3875 13.4955 15.0116 4.0421 -23.8335 -0.713137 0.878416 -2.94937 -1.59028e-015 -6.36111e-015 7.95139e-016 -7.95139e-016 0 7.95139e-016 10.2655 5.69947 12.3749 21.1866 -31.1844 25.3664 -37.0036 -13.2647 56.6223 -10.3201 -3.55293 5.17832 -6.36111e-015 7.95139e-016 -7.95139e-016 -6.36111e-015 -7.95139e-016 -1.59028e-015 -8.00672 3.13848 5.36404 
33.3874 95.6017 -30.9473 -0.507579 1.03641 -9.86168 0.112636 2.01708 0.0683357 6.02848 -3.50164 11.2849 -0.153956 11.0881 6.45379 0.342689 -6.77804 0.0394483 0.56398 -4.02157 0.0914836 -3.2357 -8.60987 1.00438 -0.179903 13.4024 1.63432 -5.58333 -8.27766 1.51995 2.14343 -7.85767 3.03038 0.217879 4.03427 0.133229 0.22041 4.03428 0.133265 2.68562 -2.44415 2.55075 -26.7837 6.5104 -8.07421 -57.3421 41.8958 11.1195 13.9059 8.69023 -20.6441 0.156719 0.951457 -3.84702 -1.59028e-015 0 -0 -7.95139e-016 3.18056e-015 -0 10.2751 5.48389 11.3396 24.7434 -29.2099 24.5413 -42.6725 -6.89138 60.7788 -10.4708 -3.15265 6.04243 1.76556e-031 -1.59028e-015 6.36111e-015 -3.18055e-015 -1.59028e-015 6.36111e-015 -9.78005 1.13196 5.49505 
33.2485 95.5739 -30.871 -0.632647 0.582567 -12.8718 0.0937451 2.08717 0.0811735 6.15318 -2.17803 12.297 -0.610773 10.6701 8.0933 1.19586 -6.37209 0.037528 0.7618 -4.47375 0.134928 -2.96999 -8.70213 2.97066 -0.0608383 13.4734 1.52723 -5.12019 -8.34465 2.57332 2.05684 -7.54714 2.90966 0.184665 4.17451 0.160194 0.18474 4.1745 0.159653 4.92581 -2.31687 2.03398 -28.2012 6.22918 -8.04343 -56.7411 40.4157 8.63017 13.3944 12.0582 -19.2455 2.54038 1.08043 -4.71646 1.59028e-015 1.59028e-015 -0 3.18055e-015 1.59028e-015 -0 12.9961 5.9588 10.955 25.4697 -28.3183 20.0561 -44.4518 -4.03713 66.7303 -10.5726 -4.34813 6.68175 -9.54166e-015 -1.59028e-015 -3.18055e-015 -6.36111e-015 -1.59028e-015 -0 -10.7498 -0.698894 5.68866 
33.1764 95.5902 -30.7797 -0.735024 -0.0341593 -15.1041 0.0711856 2.19766 0.0936432 5.90621 -0.736706 13.744 -0.435314 9.88307 8.75283 0.85741 -6.32466 0.0357374 0.661396 -4.34345 0.25386 -3.05139 -8.49871 3.98242 0.269464 13.5161 1.36512 -4.49706 -8.46036 4.04545 1.96743 -6.954 2.33511 0.138917 4.39543 0.184688 0.138914 4.39543 0.184715 7.74568 -2.36588 1.25462 -30.5266 6.08624 -8.05532 -55.5244 38.9124 5.74046 12.3081 12.0562 -18.0252 4.54979 1.86634 -4.96436 1.59028e-015 3.18055e-015 -0 -1.59028e-015 1.59028e-015 1.98785e-016 14.7475 6.42771 10.1788 25.6825 -26.0722 13.9713 -46.1621 -1.85232 71.7017 -10.3356 -4.44291 7.69422 -9.54166e-015 1.59028e-015 -6.36111e-015 -9.54166e-015 3.18056e-015 -3.18055e-015 -12.3006 -1.91126 5.93744 
33.0034 95.5792 -30.6994 -0.991192 -0.348117 -16.8885 0.183523 2.3192 0.0778369 5.83225 0.157816 15.6685 -0.189843 9.48973 8.45801 0.854917 -6.15617 0.033941 0.720262 -4.50386 0.20637 -2.9073 -8.47994 4.7729 0.36448 13.5071 1.45265 -4.23005 -8.49026 4.84434 1.91534 -6.80092 2.31656 0.363053 4.63862 0.14264 0.363442 4.63863 0.145573 10.4435 -1.46418 0.650284 -33.2338 5.24629 -8.79135 -53.4979 37.1811 2.5681 11.6049 11.7774 -18.0156 5.81664 1.68599 -4.8434 -9.54166e-015 0 7.95139e-016 -9.54166e-015 0 3.97569e-016 13.8234 5.47765 9.29499 26.6465 -20.4119 7.70799 -48.4479 -0.0587577 73.8931 -12.0374 -4.52401 7.85855 1.76556e-031 3.18055e-015 -3.18055e-015 3.53113e-031 3.18056e-015 -6.36111e-015 -14.628 -4.37881 6.38464 
32.8941 95.6029 -30.7061 -1.09176 -0.473718 -17.8263 0.292398 2.39293 -0.109126 5.6322 0.70096 13.5453 -0.425736 8.90701 11.675 0.468625 -5.99447 0.0320491 0.654165 -4.386 0.285177 -2.90047 -8.49382 5.00569 0.387933 13.3771 1.28255 -3.96144 -8.50315 5.69597 1.897 -6.74821 2.32102 0.590122 4.78525 -0.230801 0.590124 4.78527 -0.230803 12.7972 0.646703 0.211675 -36.1278 3.53831 -10.2822 -50.6074 35.4721 -0.663921 11.7404 12.6973 -18.7255 6.24044 1.69498 -4.18671 -3.18055e-015 2.38542e-015 -0 -3.18055e-015 1.59028e-015 -0 12.1443 3.36989 9.40368 27.8152 -11.2818 2.59969 -51.2366 2.91031 70.9361 -15.1865 -5.3952 8.17464 1.59028e-015 -3.18055e-015 -3.18055e-015 -1.76556e-031 -3.18056e-015 -3.18055e-015 -17.1068 -7.70596 6.88904 
32.7141 95.5754 -30.6005 -1.51502 -0.73663 -18.4287 0.389285 2.48049 -0.228592 5.94109 1.14229 15.6166 -0.267659 9.12696 9.91367 0.973671 -5.85185 0.0299631 0.620139 -4.7907 0.338561 -2.53598 -8.11169 5.19568 0.312665 13.1942 1.28609 -3.84154 -8.49724 6.06942 1.91592 -6.82793 2.35506 0.789609 4.95937 -0.474707 0.78961 4.95938 -0.474709 12.9211 1.4707 0.176583 -36.6772 3.03471 -11.0903 -47.2287 34.1112 -3.67386 11.4306 13.0747 -20.0394 8.20131 1.39975 -5.58264 -6.36111e-015 1.59028e-015 1.78906e-015 -3.18055e-015 1.59028e-015 1.19271e-015 12.243 2.57057 9.49966 31.0491 -3.52 -2.31634 -52.3763 7.23655 66.9631 -18.0927 -4.28044 7.83312 -1.98785e-016 -2.98177e-016 -0 -1.98785e-016 -2.98177e-016 3.18055e-015 -17.1126 -8.85467 6.77229 
32.7643 95.564 -30.5802 -1.20212 -0.598071 -18.2701 0.284552 2.41963 -0.236307 5.7164 1.0524 15.5811 -0.243157 8.82173 9.6636 1.41179 -5.40182 0.0266738 0.665204 -5.0742 0.267939 -2.80393 -8.4347 5.18621 0.520194 13.5596 1.13326 -3.89318 -8.72795 5.99814 1.92563 -6.85812 2.35659 0.579863 4.8381 -0.486057 0.579865 4.83812 -0.486064 13.0457 1.74946 0.0351034 -36.3395 2.74052 -11.4433 -44.8144 33.519 -6.79194 11.4257 12.2062 -21.1895 9.98524 1.25563 -6.55549 6.36111e-015 1.59028e-015 5.96354e-016 6.36111e-015 2.38542e-015 6.95746e-016 13.0086 2.23517 9.0453 35.4953 1.20426 -7.11802 -53.5465 13.6168 63.671 -20.3158 -3.73609 7.10084 4.77083e-015 3.97569e-015 -9.54166e-015 4.77083e-015 3.97569e-015 -6.36111e-015 -16.5655 -9.57057 6.54742 
